<svg xmlns="http://www.w3.org/2000/svg" xmlns:xlink="http://www.w3.org/1999/xlink" width="64" height="56">
    <g transform="matrix(0.16 0 0 0.16 0 0)">
        <g>
            <path d="M174.099 51.343C 173.722 51.439 172.873 51.933 172.213 52.441C 171.552 52.948 170.603 53.541 170.104 53.759C 169.605 53.977 168.756 54.745 168.219 55.465C 167.682 56.186 167.069 56.888 166.856 57.025C 163.71 59.056 163.848 69.898 167.067 73.521L167.067 73.521L167.925 74.487L168.024 85.853C 168.144 99.658 167.984 100.124 162.58 101.668C 161.528 101.969 160.1 102.6 159.406 103.07C 158.712 103.541 157.28 104.322 156.223 104.805C 155.166 105.289 153.601 106.219 152.745 106.873C 151.888 107.527 151.039 108.062 150.858 108.062C 150.676 108.062 149.937 108.53 149.214 109.102C 148.492 109.674 147.08 110.699 146.077 111.379C 145.074 112.059 143.811 113.058 143.27 113.598C 142.729 114.138 142.144 114.58 141.97 114.58C 141.796 114.58 140.891 115.313 139.959 116.209C 139.027 117.105 138.023 118.07 137.728 118.353C 136.021 119.991 133.105 123.202 133.105 123.443C 133.105 123.599 132.753 123.914 132.324 124.144C 131.894 124.374 131.092 125.288 130.541 126.175C 129.989 127.062 129.125 128.221 128.62 128.752C 128.115 129.282 127.343 130.414 126.904 131.267C 126.465 132.121 125.837 133.007 125.508 133.238C 124.975 133.611 123.156 136.808 123.156 137.371C 123.156 137.493 122.868 137.902 122.515 138.281C 121.852 138.993 121.374 139.9 120.045 142.967C 119.616 143.958 119.158 144.768 119.027 144.768C 118.744 144.768 117.531 148.041 116.96 150.343C 116.738 151.239 116.456 151.973 116.332 151.973C 115.851 151.973 114.932 154.31 114.58 156.432C 114.066 159.531 112.87 164.417 112.523 164.835C 110.778 166.938 110.755 193.955 112.496 197.208C 112.935 198.028 114.075 202.753 114.578 205.832C 114.846 207.475 115.283 208.785 115.788 209.458C 116.222 210.037 116.759 211.194 116.98 212.03C 117.732 214.876 118.446 216.853 118.876 217.284C 119.389 217.796 120.755 220.557 120.755 221.081C 120.755 221.284 121.27 222.22 121.9 223.161C 122.53 224.102 123.434 225.649 123.908 226.6C 124.383 227.551 125.193 228.785 125.708 229.341C 126.224 229.898 126.85 230.818 127.1 231.386C 127.35 231.954 128.113 233.036 128.795 233.791C 130.427 235.596 130.703 235.948 130.703 236.218C 130.703 236.419 133.932 240.132 134.859 240.995C 135.062 241.184 135.637 241.792 136.139 242.346C 136.64 242.9 137.497 243.749 138.043 244.233C 138.59 244.716 139.614 245.69 140.319 246.398C 141.024 247.105 141.746 247.684 141.924 247.684C 142.102 247.684 142.622 248.086 143.079 248.576C 143.537 249.067 144.76 250.031 145.798 250.719C 147.677 251.964 148.577 252.638 149.388 253.405C 149.622 253.627 150.338 254.033 150.979 254.308C 151.62 254.583 152.499 255.148 152.933 255.564C 153.367 255.979 154.748 256.784 156.002 257.353C 157.256 257.922 158.754 258.739 159.33 259.168C 159.906 259.598 160.995 260.136 161.75 260.365C 168.223 262.325 168.154 262.146 168.025 276.565L168.025 276.565L167.925 287.777L167.067 288.743C 164.374 291.774 163.654 300.872 165.849 304.117C 166.695 305.365 169.623 308.224 170.669 308.821C 171.235 309.144 172.118 309.75 172.632 310.167C 174.273 311.5 184.22 311.434 184.22 310.09C 184.22 309.934 184.921 309.395 185.777 308.893C 190.217 306.291 193.399 299.701 192.26 295.465C 191.618 293.077 189.995 288.709 189.671 288.496C 188.469 287.705 188.336 285.974 188.334 271.109C 188.33 250.949 188.211 250.363 183.512 247.348C 181.337 245.953 179.967 245.361 177.42 244.715C 175.612 244.256 173.972 243.75 173.773 243.589C 172.891 242.875 170.767 241.86 169.408 241.503C 168.592 241.289 167.384 240.69 166.724 240.172C 166.063 239.654 164.636 238.799 163.551 238.271C 162.466 237.744 161.578 237.187 161.578 237.034C 161.578 236.881 160.655 236.195 159.526 235.51C 158.397 234.824 156.822 233.656 156.026 232.913C 155.23 232.171 154.339 231.486 154.047 231.392C 153.755 231.299 153.217 230.774 152.852 230.227C 152.486 229.679 151.754 228.976 151.224 228.663C 150.695 228.35 150.098 227.788 149.897 227.412C 149.696 227.037 148.846 226.064 148.008 225.249C 147.17 224.434 146.484 223.621 146.484 223.443C 146.484 223.265 145.944 222.529 145.284 221.809C 144.625 221.089 143.606 219.662 143.02 218.638C 142.434 217.613 141.507 216.286 140.96 215.687C 140.413 215.088 139.966 214.361 139.966 214.072C 139.966 213.474 138.31 210.222 137.855 209.926C 137.544 209.723 136.192 206.116 136.192 205.488C 136.192 205.289 135.665 204.011 135.02 202.649C 134.169 200.852 133.704 199.182 133.324 196.569C 133.035 194.588 132.459 191.424 132.043 189.537C 131.455 186.872 131.286 184.996 131.286 181.132C 131.286 177.268 131.455 175.392 132.043 172.727C 132.459 170.84 133.035 167.676 133.324 165.695C 133.704 163.082 134.169 161.412 135.02 159.615C 135.665 158.253 136.192 156.985 136.192 156.797C 136.192 155.915 137.401 153.002 138.409 151.458C 139.024 150.515 139.703 149.201 139.917 148.539C 140.132 147.878 140.714 146.898 141.211 146.362C 141.707 145.826 142.489 144.683 142.947 143.821C 143.405 142.96 144.388 141.564 145.132 140.719C 145.875 139.874 146.484 139.035 146.484 138.854C 146.484 138.673 147.217 137.769 148.113 136.845C 149.009 135.921 149.993 134.894 150.298 134.563C 150.604 134.233 151.892 133.036 153.16 131.904C 154.429 130.772 155.8 129.52 156.207 129.122C 156.614 128.725 158.027 127.708 159.348 126.862C 160.669 126.017 161.961 125.069 162.22 124.755C 162.479 124.442 162.881 124.185 163.113 124.185C 163.345 124.185 164.587 123.494 165.874 122.649C 167.16 121.804 168.997 120.882 169.956 120.601C 170.914 120.32 172.264 119.703 172.955 119.23C 173.646 118.756 175.63 118.028 177.364 117.61C 179.799 117.024 181.155 116.448 183.312 115.084C 188.205 111.989 188.336 111.36 188.336 91.09C 188.336 76.287 188.47 74.555 189.673 73.768C 189.92 73.607 191.239 70.103 192.392 66.545C 193.614 62.776 190.126 56.268 185.077 52.892L185.077 52.892L182.676 51.286L178.731 51.227C 176.561 51.194 174.477 51.246 174.099 51.343M214.516 51.387C 214.104 51.52 213.36 51.985 212.864 52.419C 212.367 52.854 211.552 53.394 211.053 53.62C 206.157 55.837 203.805 63.148 205.874 69.72C 206.463 71.591 207.258 73.414 207.642 73.771C 208.738 74.792 208.876 76.76 208.91 91.767C 208.955 111.501 209.007 111.767 213.48 114.817C 216.148 116.635 217.05 117.005 220.882 117.852C 222.084 118.117 223.55 118.701 224.141 119.15C 224.731 119.598 225.832 120.156 226.587 120.389C 228.641 121.025 230.278 121.795 231.046 122.487C 231.424 122.827 232.523 123.541 233.489 124.074C 236.344 125.648 239.518 127.788 241.104 129.207C 243.089 130.982 246.743 134.385 247.17 134.855C 251.397 139.513 253.082 141.635 253.878 143.303C 254.26 144.102 255.022 145.247 255.572 145.85C 256.122 146.452 256.92 147.806 257.345 148.858C 257.77 149.911 258.444 151.126 258.842 151.558C 259.239 151.99 259.91 153.457 260.333 154.817C 260.755 156.177 261.573 158.264 262.15 159.455C 262.867 160.934 263.394 162.836 263.814 165.458C 264.152 167.569 264.657 170.3 264.936 171.527C 266.388 177.9 266.392 184.404 264.949 190.738C 264.669 191.964 264.161 194.695 263.82 196.806C 263.398 199.415 262.863 201.338 262.15 202.809C 261.573 204 260.755 206.087 260.333 207.447C 259.91 208.807 259.226 210.285 258.813 210.731C 258.399 211.177 257.945 211.917 257.803 212.375C 257.343 213.86 256.188 215.932 255.349 216.779C 254.898 217.234 254.227 218.237 253.857 219.009C 253.207 220.367 251.451 222.658 248.796 225.613C 246.679 227.969 246.087 228.567 244.095 230.36C 243.046 231.304 241.665 232.557 241.026 233.145C 240.386 233.733 238.921 234.786 237.77 235.485C 236.619 236.184 235.678 236.867 235.678 237.003C 235.678 237.139 234.79 237.693 233.705 238.235C 232.62 238.777 231.19 239.643 230.526 240.159C 229.863 240.675 228.655 241.276 227.843 241.495C 226.482 241.861 224.354 242.884 223.48 243.591C 223.281 243.752 221.527 244.286 219.582 244.778C 217.637 245.27 215.87 245.816 215.656 245.993C 215.441 246.17 214.272 246.981 213.057 247.797C 209.058 250.479 208.952 251.067 208.916 270.669C 208.888 285.583 208.753 287.458 207.631 288.503C 205.306 290.669 204.35 297.782 205.832 301.887C 206.398 303.454 206.861 304.773 206.861 304.817C 206.861 305.157 210.267 308.372 210.806 308.54C 211.184 308.658 212.006 309.208 212.634 309.763C 214.599 311.499 222.634 311.78 224.605 310.181C 225.129 309.756 226.014 309.144 226.573 308.821C 227.656 308.194 229.012 306.897 230.742 304.832C 233.493 301.55 233.103 292.087 230.075 288.628C 228.955 287.35 228.901 286.763 228.857 275.545C 228.821 266.192 228.876 265.063 229.417 264.225C 230.535 262.49 232.782 261.096 235.632 260.368C 236.456 260.158 237.459 259.671 237.862 259.285C 238.264 258.9 239.725 258.056 241.109 257.41C 242.493 256.764 244.028 255.862 244.521 255.404C 245.015 254.947 245.889 254.379 246.465 254.143C 247.042 253.907 247.822 253.423 248.199 253.068C 249.096 252.224 251.683 250.429 252.002 250.429C 252.139 250.429 252.856 249.811 253.596 249.057C 254.336 248.302 255.064 247.684 255.214 247.684C 255.652 247.684 259.021 244.51 262.037 241.256C 265.673 237.333 266.082 236.856 267.043 235.42C 267.579 234.618 268.14 233.962 268.289 233.962C 268.438 233.962 269.063 233.075 269.677 231.99C 270.291 230.905 271.149 229.679 271.584 229.266C 272.019 228.853 272.762 227.669 273.235 226.634C 273.708 225.6 274.291 224.548 274.531 224.298C 275.296 223.497 276.041 222.165 276.49 220.797C 276.73 220.066 277.355 218.831 277.879 218.053C 278.403 217.275 279.177 215.48 279.598 214.065C 280.019 212.65 280.661 210.996 281.025 210.39C 281.866 208.99 282.231 207.748 282.869 204.117C 283.151 202.513 283.761 200.197 284.225 198.971C 286.406 193.203 286.406 169.061 284.225 163.293C 283.761 162.067 283.151 159.751 282.869 158.148C 282.23 154.511 281.865 153.272 281.023 151.875C 280.657 151.268 280.008 149.614 279.58 148.199C 279.153 146.784 278.384 145.009 277.873 144.254C 277.362 143.499 276.743 142.264 276.498 141.509C 276.05 140.125 275.308 138.781 274.559 137.995C 274.335 137.759 273.721 136.679 273.196 135.593C 272.671 134.508 271.99 133.436 271.684 133.211C 271.377 132.987 270.534 131.79 269.81 130.552C 269.087 129.315 268.368 128.302 268.214 128.302C 268.06 128.302 267.508 127.647 266.986 126.846C 266.039 125.393 265.157 124.358 261.921 120.902C 259.93 118.775 259.668 118.514 257.272 116.264C 256.284 115.338 255.344 114.58 255.183 114.58C 255.021 114.58 254.271 113.962 253.516 113.208C 252.762 112.453 252.064 111.835 251.965 111.835C 251.672 111.835 248.952 109.996 248.308 109.362C 247.981 109.04 247.128 108.477 246.412 108.111C 245.697 107.745 244.712 107.075 244.224 106.621C 243.735 106.167 242.613 105.52 241.73 105.183C 240.847 104.846 239.327 104.021 238.353 103.351C 237.378 102.68 235.74 101.912 234.713 101.644C 232.548 101.079 230.17 99.428 229.35 97.922C 228.475 96.313 228.687 75.676 229.592 74.422C 231.388 71.932 231.839 70.981 232.197 68.926C 233.046 64.047 232.386 59.269 230.601 57.377C 229.968 56.705 229.207 55.785 228.911 55.333C 228.614 54.881 227.893 54.266 227.308 53.966C 226.722 53.667 225.64 52.948 224.903 52.368C 223.525 51.285 216.793 50.649 214.516 51.387M180.928 58.834C 181.623 59.305 182.305 59.691 182.443 59.691C 182.582 59.691 182.949 59.988 183.259 60.35C 185.584 63.066 185.192 68.795 182.583 70.217C 181.879 70.601 180.835 71.191 180.262 71.528C 178.974 72.286 176.454 72.013 175.365 70.999C 174.968 70.629 174.494 70.326 174.312 70.326C 171.396 70.326 170.442 62.633 173.12 60.72C 173.78 60.249 174.657 59.526 175.068 59.115C 175.771 58.412 176.668 58.148 178.769 58.027C 179.261 57.999 180.233 58.362 180.928 58.834M220.355 58.298C 221.078 58.465 221.927 58.842 222.242 59.135C 222.556 59.427 223.318 60.097 223.935 60.622C 226.346 62.677 226.078 68.658 223.516 69.977C 222.959 70.263 222.215 70.75 221.863 71.06C 220.497 72.258 217.785 72.343 216.327 71.233C 215.744 70.788 214.932 70.319 214.525 70.19C 212.449 69.534 211.496 64.237 212.966 61.527C 213.538 60.473 217.166 58.023 218.182 58.007C 218.654 57.999 219.631 58.13 220.355 58.298M194.854 120.646C 192.39 121.05 186.964 125.055 186.964 126.469C 186.964 126.694 186.606 127.313 186.169 127.847C 184.112 130.356 183.696 136.981 185.439 139.457C 187.565 142.477 187.994 143.9 187.988 147.923C 187.983 152.225 187.86 152.73 186.648 153.446L186.648 153.446L185.695 154.009L183.31 151.533C 180.468 148.582 179.822 147.524 178.539 143.715C 177.354 140.2 175.188 137.503 172.361 136.024C 171.336 135.488 170.497 134.933 170.497 134.791C 170.497 133.119 161.792 133.661 159.063 135.503C 158.222 136.071 157.401 136.533 157.24 136.529C 156.415 136.513 152.673 141.178 152.308 142.678C 151.035 147.92 151.51 153.019 153.511 155.568C 154.811 157.225 156.644 159.177 156.9 159.177C 157.029 159.177 157.913 159.712 158.864 160.366C 159.815 161.02 161.162 161.648 161.857 161.761C 162.553 161.875 163.565 162.051 164.107 162.152C 165.194 162.356 170.497 167.185 170.497 167.97C 170.497 168.228 170.627 168.439 170.785 168.439C 171.604 168.439 171.84 170.136 171.095 170.658C 169.287 171.924 161.35 171.207 159.641 169.623C 159.141 169.16 158.099 168.627 157.325 168.439C 156.551 168.25 155.444 167.941 154.864 167.753C 146.769 165.118 137.393 172.298 137.393 181.132C 137.393 183.915 138.259 186.848 139.265 187.47C 139.413 187.561 139.62 188.065 139.725 188.589C 140.027 190.098 143.821 193.23 146.312 194.025C 150.858 195.477 156.767 194.762 160.118 192.356C 162.01 190.996 169.332 190.463 171.01 191.562C 171.838 192.105 171.668 193.825 170.785 193.825C 170.627 193.825 170.497 194.034 170.497 194.29C 170.497 194.546 169.381 195.863 168.017 197.216C 165.553 199.661 164.826 200.051 161.874 200.509C 160.723 200.688 155.403 203.892 155.403 204.406C 155.403 204.53 154.796 205.295 154.055 206.106C 150.797 209.671 150.698 219.008 153.882 222.539C 156.238 225.152 156.581 225.451 158.253 226.354C 159.189 226.859 160.436 227.535 161.024 227.857C 163.129 229.007 170.148 228.499 170.99 227.136C 171.099 226.961 171.851 226.496 172.663 226.103C 174.232 225.343 178.045 221.256 178.045 220.333C 178.045 217.962 180.764 213.182 183.834 210.155L183.834 210.155L185.886 208.132L186.94 209.185C 188.814 211.059 187.935 222.298 185.914 222.298C 183.83 222.298 183.971 231.449 186.103 234.477C 186.501 235.043 187.045 235.944 187.312 236.478C 187.579 237.013 188.266 237.771 188.838 238.162C 189.411 238.553 190.42 239.377 191.081 239.993C 193.966 242.685 203.374 242.504 206.482 239.696C 207.225 239.024 208.232 238.214 208.72 237.894C 209.207 237.575 209.605 237.112 209.605 236.865C 209.605 236.618 210.141 235.715 210.796 234.857C 213.006 231.961 213.341 225.226 211.415 222.39C 208.943 218.749 208.246 211.21 210.17 208.923L210.17 208.923L211.078 207.844L213.343 210.222C 217.304 214.38 217.598 214.856 218.878 219.151C 219.336 220.688 220.015 222.086 220.627 222.753C 223.124 225.475 223.792 226.044 224.726 226.249C 225.275 226.37 225.842 226.672 225.984 226.92C 227.241 229.105 234.948 229.064 237.94 226.856C 238.524 226.425 239.189 226.072 239.419 226.072C 240.897 226.072 244.462 221.4 244.928 218.854C 245.186 217.446 245.53 215.927 245.692 215.478C 246.021 214.566 244.806 208.085 244.141 207.204C 241.623 203.869 237.307 200.804 234.484 200.344C 231.827 199.912 228.989 197.682 226.588 194.141C 226.022 193.307 225.439 192.535 225.291 192.426C 225.144 192.318 225.535 191.953 226.16 191.616C 228.29 190.469 235.172 190.944 237.165 192.376C 240.174 194.537 245.549 195.499 249.142 194.519C 249.85 194.326 250.974 194.029 251.64 193.859C 252.678 193.594 254.584 192.147 256.628 190.073C 256.924 189.772 257.327 189.065 257.524 188.502C 257.72 187.939 258.28 186.889 258.768 186.17C 260.58 183.5 260.296 176.694 258.322 175.474C 258.159 175.373 257.836 174.714 257.603 174.01C 257.371 173.305 256.703 172.3 256.12 171.776C 255.537 171.252 254.591 170.366 254.018 169.807C 252.214 168.049 243.88 166.542 242.403 167.708C 242.194 167.872 241.407 168.117 240.652 168.252C 239.241 168.504 237.05 169.654 237.05 170.142C 237.05 171.209 227.755 171.609 226.07 170.613C 225.31 170.165 225.19 169.946 225.503 169.586C 225.722 169.335 226.581 168.241 227.414 167.155C 229.482 164.455 232.09 162.316 233.598 162.081C 235.565 161.775 237.329 161.172 237.984 160.583C 238.319 160.281 239.046 159.803 239.599 159.52C 240.527 159.045 243.168 156.469 244.118 155.113C 244.341 154.795 244.841 153.036 245.23 151.203L245.23 151.203L245.936 147.872L245.181 144.395C 243.341 135.926 232.478 130.848 225.839 135.354C 225.124 135.839 224.035 136.475 223.419 136.768C 222.803 137.06 222.298 137.417 222.298 137.56C 222.298 137.703 221.682 138.495 220.929 139.318C 219.948 140.392 219.358 141.497 218.845 143.221C 217.611 147.369 217.302 147.868 213.383 152.051L213.383 152.051L211.158 154.426L210.184 153.336L209.209 152.245L209.325 147.907C 209.445 143.384 209.657 142.618 211.679 139.42C 213.34 136.792 212.856 130.106 210.809 127.425C 210.175 126.594 209.563 125.641 209.448 125.307C 209.334 124.973 208.613 124.237 207.846 123.671C 207.079 123.105 205.998 122.306 205.443 121.895C 203.753 120.645 198.58 120.034 194.854 120.646M202.114 128.073C 202.461 128.29 202.744 128.562 202.744 128.679C 202.744 128.796 203.338 129.569 204.064 130.398C 205.715 132.281 206.233 134.876 205.227 136.225C 204.89 136.679 204.387 137.495 204.111 138.039C 202.266 141.672 193.865 141.432 192.933 137.72C 192.817 137.257 192.609 136.878 192.471 136.878C 191.451 136.878 191.265 132.384 192.25 131.561C 192.476 131.372 193.161 130.486 193.772 129.591C 194.383 128.697 195.224 127.892 195.641 127.804C 196.057 127.715 196.707 127.571 197.084 127.483C 198.122 127.242 201.399 127.626 202.114 128.073M167.514 141.457C 167.612 141.711 168.393 142.249 169.251 142.653C 172.825 144.333 172.856 151.422 169.298 153.261C 168.731 153.554 168.098 154.025 167.89 154.308C 166.551 156.136 160.663 154.064 159.148 151.233C 157.756 148.631 158.884 143.91 161.177 142.74C 161.895 142.374 162.683 141.831 162.929 141.535C 163.514 140.83 167.249 140.767 167.514 141.457M233.962 141.283C 233.962 141.442 234.717 141.982 235.639 142.484C 241.082 145.447 238.159 155.078 231.822 155.055C 230.111 155.049 230.133 155.06 226.893 152.495C 224.487 150.59 224.726 144.375 227.257 143.064C 227.814 142.775 228.661 142.191 229.14 141.767C 230.022 140.984 233.962 140.589 233.962 141.283M156.631 176.852C 158.48 178.897 158.485 178.907 158.488 181.178L158.488 181.178L158.491 183.454L156.63 185.467L154.77 187.479L151.342 187.459C 147.36 187.436 147.21 187.356 145.778 184.469C 144.522 181.938 144.497 180.364 145.675 177.987C 147.208 174.892 147.728 174.636 152.26 174.743L152.26 174.743L154.777 174.802L156.631 176.852zM201.929 175.124C 202.6 175.405 203.231 175.945 203.33 176.325C 203.429 176.705 203.647 177.015 203.814 177.015C 203.98 177.015 204.117 177.246 204.117 177.527C 204.117 177.809 204.425 178.232 204.803 178.467C 205.53 178.921 205.872 183.533 205.178 183.533C 205.008 183.533 204.453 184.242 203.945 185.108C 201.838 188.703 195.098 188.705 193.239 185.11C 192.955 184.562 192.431 183.799 192.073 183.415C 191.63 182.94 191.424 182.214 191.424 181.132C 191.424 180.05 191.63 179.325 192.073 178.849C 192.431 178.465 192.955 177.703 193.239 177.154C 193.865 175.943 194.79 175.085 195.712 174.861C 197.232 174.49 200.771 174.64 201.929 175.124M249.749 175.477C 252.13 177.633 253.208 181.994 251.801 183.783C 251.424 184.263 251.11 184.827 251.104 185.038C 251.057 186.606 248.674 187.637 245.111 187.63C 239.876 187.62 236.642 181.288 239.966 177.553C 240.626 176.812 241.166 176.114 241.166 176.003C 241.166 174.578 248.274 174.142 249.749 175.477M167.89 207.923C 168.098 208.188 168.921 208.83 169.719 209.349C 172.795 211.349 172.57 217.979 169.371 219.598C 168.575 220 167.801 220.541 167.65 220.799C 167.251 221.484 163.695 221.429 162.919 220.726C 162.589 220.428 161.81 219.91 161.188 219.576C 158.953 218.378 157.941 214.632 158.978 211.399C 159.864 208.635 166.441 206.07 167.89 207.923M235.469 208.734C 239.399 211.538 239.743 217.662 236.079 219.584C 235.451 219.914 234.667 220.428 234.337 220.726C 232.153 222.702 226.561 220.038 225.542 216.537C 224.561 213.163 225.327 210.999 228.336 208.646C 230.014 207.333 230.303 207.215 231.842 207.209C 233.053 207.205 233.718 207.485 235.469 208.734M200.773 221.954C 205.1 223.291 207.158 228.564 204.474 231.437C 203.957 231.99 203.361 232.764 203.151 233.158C 202.306 234.736 198.512 235.513 195.974 234.629C 192.754 233.506 190.259 226.961 192.451 225.386C 192.583 225.292 192.907 224.751 193.172 224.185C 193.661 223.14 195.407 222.068 197.397 221.593C 197.979 221.454 198.479 221.324 198.506 221.304C 198.533 221.285 199.553 221.577 200.773 221.954M180.863 291.081C 181.557 291.552 182.26 291.938 182.426 291.938C 183.757 291.938 185.085 295.687 184.724 298.423C 184.085 303.262 178.431 305.942 174.904 303.078C 171.413 300.243 171.698 300.763 171.698 297.233C 171.698 293.824 172.249 292.626 174.068 292.076C 174.463 291.957 175.094 291.584 175.472 291.247C 176.865 290.003 179.172 289.932 180.863 291.081M221.624 291.091C 221.969 291.403 222.763 291.915 223.39 292.227C 225.925 293.494 226.357 301.852 223.889 301.893C 223.675 301.897 222.883 302.437 222.131 303.094C 218.769 306.027 212.562 302.859 212.302 298.078C 212.136 295.008 213.395 291.969 214.851 291.926C 215.079 291.919 215.729 291.523 216.295 291.046C 217.495 290.034 220.484 290.06 221.624 291.091" stroke="none" fill="#58585F" fill-rule="nonzero" />
            <path d="M100.143 70.686C 98.645 71.041 92.624 74.04 92.624 74.431C 92.624 74.585 91.944 75.468 91.113 76.392C 87.401 80.521 87.587 89.045 91.488 93.517C 92.705 94.913 93.806 96.055 93.934 96.055C 94.063 96.056 94.61 96.435 95.149 96.9C 96.053 97.677 98.016 98.4 100.749 98.962C 102.183 99.257 103.551 100.477 113.645 110.461C 121.259 117.992 122.311 118.911 123.744 119.286L123.744 119.286L125.343 119.704L127.08 118.047C 131.896 113.451 135.702 109.448 136.56 108.075L136.56 108.075L137.517 106.544L136.727 105.221C 135.955 103.925 133.408 101.27 123.986 91.938C 118.513 86.518 116.981 84.742 116.981 83.818C 116.981 83.448 116.525 82.253 115.969 81.165C 115.412 80.076 114.789 78.679 114.585 78.061C 114.075 76.516 111.178 73.679 109.005 72.597C 108.015 72.104 106.973 71.564 106.69 71.397C 105.183 70.506 102.248 70.187 100.143 70.686M292.281 70.969C 289.503 71.973 285.872 74.102 285.483 74.957C 285.277 75.409 284.72 76.033 284.246 76.344C 283.604 76.764 283.153 77.669 282.486 79.878C 281.993 81.511 281.486 83.173 281.361 83.571C 280.973 84.797 279.393 86.518 269.952 95.992C 259.507 106.474 259.803 106.09 260.773 107.924C 262.638 111.455 272.217 120.069 274.277 120.069C 274.532 120.069 279.461 115.367 285.231 109.62C 294.361 100.527 295.888 99.143 297.003 98.952C 301.025 98.262 302.239 97.611 305.657 94.315C 311.945 88.252 310.041 76.615 302.095 72.544C 297.631 70.257 295.292 69.882 292.281 70.969M105.255 78.928C 109.31 80.132 110.197 86.641 106.743 89.842C 101.281 94.905 93.07 88.679 96.154 81.812C 97.042 79.835 102.162 77.321 103.431 78.24C 103.619 78.376 104.44 78.686 105.255 78.928M298.589 79.1C 302.527 80.964 303.483 86.697 300.318 89.464C 297.959 91.525 297.53 91.712 295.318 91.632C 290.307 91.451 287.483 86.389 289.501 81.205C 290.447 78.774 295.452 77.615 298.589 79.1M60.892 167.339C 58.012 167.688 55.059 168.81 53.717 170.066C 51.215 172.407 50.81 172.886 50.091 174.357C 49.698 175.159 49.115 176.278 48.794 176.844C 47.983 178.274 47.962 183.948 48.762 185.42C 49.07 185.986 49.744 187.242 50.259 188.21C 51.986 191.453 55.369 193.868 59.348 194.7C 62.469 195.352 68.867 194.304 70.258 192.913C 71.943 191.228 71.623 191.263 86.973 191.081C 100.139 190.924 101.476 190.856 102.022 190.309C 102.352 189.979 102.765 189.708 102.94 189.708C 103.128 189.708 103.258 186.216 103.256 181.218L103.256 181.218L103.254 172.727L101.902 171.955C 100.566 171.192 100.4 171.183 87.411 171.175C 73.454 171.167 72.14 171.049 70.716 169.685C 69.941 168.942 68.473 168.376 65.352 167.618C 64.231 167.345 61.995 167.206 60.892 167.339M334.134 167.335C 331.712 167.608 327.816 168.904 326.872 169.751C 325.379 171.089 325.264 171.099 310.242 171.143L310.242 171.143L296.471 171.184L295.405 172.179L294.34 173.174L294.34 181.239L294.34 189.304L295.395 190.192L296.451 191.081L310.232 191.121C 325.202 191.165 325.385 191.18 326.828 192.475C 329.387 194.769 335.823 195.585 340.331 194.186C 342.572 193.491 345.663 191.327 346.279 190.022C 346.449 189.661 346.719 189.365 346.879 189.365C 347.039 189.365 347.17 189.182 347.17 188.959C 347.17 188.735 347.487 188.214 347.876 187.801C 351.909 183.507 348.656 172.039 342.497 168.84C 340.894 168.008 335.992 167.126 334.134 167.335M66.672 176.04C 69.307 179.058 69.297 179.038 69.297 181.097C 69.297 185.251 66.137 187.904 61.607 187.552C 58.527 187.312 58.147 187.152 57.499 185.823C 57.207 185.224 56.656 184.271 56.274 183.705C 55.274 182.224 55.342 179.918 56.432 178.314C 56.904 177.62 57.29 176.916 57.29 176.75C 57.29 174.382 64.732 173.818 66.672 176.04M340.497 176.852C 344.516 181.323 341.701 187.67 335.712 187.642C 333.174 187.63 331.399 187.13 330.786 186.255C 328.661 183.222 328.098 180.307 329.331 178.731C 329.7 178.259 330.005 177.692 330.01 177.471C 330.044 175.631 332.245 174.651 336.137 174.743L336.137 174.743L338.654 174.802L340.497 176.852zM272.883 242.743C 271.35 243.287 261.01 253.392 260.419 254.923C 259.97 256.085 262.891 259.799 267.366 263.755C 267.719 264.067 268.568 264.924 269.253 265.66C 269.937 266.396 270.694 267.168 270.935 267.375C 272.624 268.835 278.558 274.896 279.533 276.158C 280.189 277.007 280.839 277.779 280.979 277.873C 281.118 277.967 281.41 278.739 281.627 279.588C 281.844 280.437 282.156 281.518 282.321 281.99C 282.485 282.461 282.712 283.268 282.824 283.782C 282.936 284.296 283.656 285.376 284.425 286.183C 285.194 286.99 286.055 287.908 286.339 288.223C 286.622 288.538 288.191 289.461 289.825 290.275C 301.811 296.243 314.186 282.219 307.58 270.154C 306.02 267.306 301.103 263.808 298.658 263.808C 296.598 263.808 294.34 261.982 285.979 253.557C 284.952 252.522 277.391 244.969 277.138 244.724C 276.967 244.56 276.367 243.924 275.804 243.31C 274.65 242.054 274.761 242.076 272.883 242.743M123.092 243.18C 122.501 243.318 118.655 246.875 112.377 253.087C 106.991 258.418 102.489 262.779 102.373 262.779C 102.257 262.779 101.676 262.997 101.081 263.264C 100.486 263.531 99.287 263.847 98.416 263.965C 96.437 264.233 93.484 266.35 91.015 269.27C 87.709 273.179 87.65 282.094 90.906 285.628C 91.62 286.403 92.371 287.347 92.574 287.727C 92.777 288.107 93.528 288.685 94.242 289.011C 94.956 289.338 96.467 290.078 97.599 290.657C 102.924 293.38 112.264 289.913 114.477 284.391C 114.741 283.731 115.322 282.496 115.767 281.647C 116.211 280.798 116.76 279.408 116.985 278.559C 117.349 277.191 118.446 275.962 126.633 267.753C 139.471 254.88 139.053 256.655 131.13 248.645C 125.316 242.767 125.195 242.685 123.092 243.18M104.808 271.042C 108.132 272.782 109.614 276.132 108.567 279.54C 107.979 281.453 106.916 283.017 106.201 283.021C 105.998 283.022 105.369 283.272 104.803 283.575C 100.703 285.776 95.493 282.079 95.607 277.049L95.607 277.049L95.66 274.681L97.747 272.696C 99.374 271.147 100.116 270.68 101.118 270.576C 101.824 270.502 102.635 270.415 102.921 270.384C 103.207 270.352 104.056 270.648 104.808 271.042M300.35 272.961C 302.347 274.871 302.679 280.185 300.901 281.772C 298.839 283.613 294.168 284.768 293.101 283.701C 292.91 283.51 292.07 283.008 291.234 282.586C 287.851 280.877 287.921 274.85 291.353 272.213C 294.566 269.744 297.216 269.964 300.35 272.961" stroke="none" fill="#F4B728" fill-rule="nonzero" />
        </g>
    </g>
</svg>